<svg width="32" height="32" viewBox="0 0 32 32" fill="none" xmlns="http://www.w3.org/2000/svg">
<g clip-path="url(#clip0_1108_2231)">
<path d="M16 0C12.8355 0 9.74207 0.938384 7.11088 2.69649C4.4797 4.45459 2.42894 6.95345 1.21793 9.87707C0.00693258 12.8007 -0.309921 16.0178 0.307443 19.1214C0.924806 22.2251 2.44866 25.0761 4.6863 27.3137C6.92394 29.5514 9.77487 31.0752 12.8786 31.6926C15.9823 32.3099 19.1993 31.9931 22.1229 30.7821C25.0466 29.5711 27.5454 27.5203 29.3035 24.8891C31.0616 22.2579 32 19.1645 32 16C31.9954 11.7579 30.3082 7.69095 27.3087 4.69136C24.3091 1.69177 20.2421 0.00458811 16 0ZM21.3333 17.3333H17.3333V21.3333C17.3333 21.687 17.1929 22.0261 16.9428 22.2761C16.6928 22.5262 16.3536 22.6667 16 22.6667C15.6464 22.6667 15.3072 22.5262 15.0572 22.2761C14.8072 22.0261 14.6667 21.687 14.6667 21.3333V17.3333H10.6667C10.3131 17.3333 9.97391 17.1929 9.72387 16.9428C9.47382 16.6928 9.33334 16.3536 9.33334 16C9.33334 15.6464 9.47382 15.3072 9.72387 15.0572C9.97391 14.8071 10.3131 14.6667 10.6667 14.6667H14.6667V10.6667C14.6667 10.313 14.8072 9.97391 15.0572 9.72386C15.3072 9.47381 15.6464 9.33333 16 9.33333C16.3536 9.33333 16.6928 9.47381 16.9428 9.72386C17.1929 9.97391 17.3333 10.313 17.3333 10.6667V14.6667H21.3333C21.687 14.6667 22.0261 14.8071 22.2762 15.0572C22.5262 15.3072 22.6667 15.6464 22.6667 16C22.6667 16.3536 22.5262 16.6928 22.2762 16.9428C22.0261 17.1929 21.687 17.3333 21.3333 17.3333Z" fill="url(#paint0_linear_1108_2231)"/>
</g>
<defs>
<linearGradient id="paint0_linear_1108_2231" x1="16" y1="0" x2="16" y2="32" gradientUnits="userSpaceOnUse">
<stop stop-color="#C291FF" stop-opacity="0.66"/>
<stop offset="0.0001" stop-color="white" stop-opacity="0.66"/>
<stop offset="1" stop-color="#B780D9" stop-opacity="0.86"/>
</linearGradient>
<clipPath id="clip0_1108_2231">
<rect width="32" height="32" fill="white"/>
</clipPath>
</defs>
</svg>
