<svg width="32" height="32" viewBox="0 0 32 32" fill="none" xmlns="http://www.w3.org/2000/svg">
<g id="clock 1" clip-path="url(#clip0_194_1123)">
<path id="Vector" d="M16 0C12.8355 0 9.74207 0.938384 7.11088 2.69649C4.4797 4.45459 2.42894 6.95345 1.21793 9.87707C0.00693258 12.8007 -0.309921 16.0177 0.307443 19.1214C0.924806 22.2251 2.44866 25.0761 4.6863 27.3137C6.92394 29.5514 9.77487 31.0752 12.8786 31.6926C15.9823 32.3099 19.1993 31.9931 22.1229 30.7821C25.0466 29.5711 27.5454 27.5203 29.3035 24.8891C31.0616 22.2579 32 19.1645 32 16C31.9954 11.7579 30.3082 7.69095 27.3087 4.69136C24.3091 1.69177 20.2421 0.00458811 16 0ZM17.3333 15.8387C17.3335 16.0647 17.2762 16.287 17.1668 16.4848C17.0574 16.6826 16.8995 16.8493 16.708 16.9693L11.588 20.1693C11.4392 20.2623 11.2735 20.3251 11.1004 20.354C10.9273 20.3829 10.7502 20.3775 10.5793 20.338C10.4083 20.2985 10.2467 20.2257 10.1039 20.1238C9.96103 20.0219 9.83965 19.8928 9.74667 19.744C9.6537 19.5952 9.59095 19.4295 9.562 19.2564C9.53306 19.0833 9.53849 18.9062 9.57799 18.7352C9.61748 18.5643 9.69027 18.4027 9.79219 18.2599C9.89411 18.117 10.0232 17.9956 10.172 17.9027L14.6667 15.1V9.33333C14.6667 8.97971 14.8072 8.64057 15.0572 8.39053C15.3072 8.14048 15.6464 8 16 8C16.3536 8 16.6928 8.14048 16.9428 8.39053C17.1929 8.64057 17.3333 8.97971 17.3333 9.33333V15.8387Z" fill="url(#paint0_linear_194_1123)"/>
</g>
<defs>
<linearGradient id="paint0_linear_194_1123" x1="16" y1="0" x2="16" y2="32" gradientUnits="userSpaceOnUse">
<stop stop-color="#E585ED"/>
<stop offset="0.489583" stop-color="white"/>
<stop offset="1" stop-color="#F0F0E1" stop-opacity="0.5"/>
</linearGradient>
<clipPath id="clip0_194_1123">
<rect width="32" height="32" fill="white"/>
</clipPath>
</defs>
</svg>
