<svg width="42" height="42" viewBox="0 0 42 42" fill="none" xmlns="http://www.w3.org/2000/svg">
<path d="M28.875 0C21.392 0 15.75 3.38625 15.75 7.875C15.75 8.225 15.785 8.56975 15.8515 8.90575C14.9765 8.8025 14.0647 8.75 13.125 8.75C5.642 8.75 0 12.1362 0 16.625V34.125C0 38.6138 5.642 42 13.125 42C20.608 42 26.25 38.6138 26.25 34.125V33.1012C27.1092 33.1993 27.9895 33.25 28.875 33.25C36.358 33.25 42 29.8638 42 25.375V7.875C42 3.38625 36.358 0 28.875 0ZM28.875 5.25C33.957 5.25 36.75 7.2205 36.75 7.875C36.75 8.5295 33.957 10.5 28.875 10.5C23.793 10.5 21 8.5295 21 7.875C21 7.2205 23.793 5.25 28.875 5.25ZM13.125 14C18.207 14 21 15.9705 21 16.625C21 17.2795 18.207 19.25 13.125 19.25C8.043 19.25 5.25 17.2795 5.25 16.625C5.25 15.9705 8.043 14 13.125 14ZM5.25 23.0107C7.41475 23.954 10.122 24.5 13.125 24.5C16.128 24.5 18.8353 23.954 21 23.0107V25.375C21 26.0295 18.207 28 13.125 28C8.043 28 5.25 26.0295 5.25 25.375V23.0107ZM13.125 36.75C8.043 36.75 5.25 34.7795 5.25 34.125V31.7607C7.41475 32.704 10.122 33.25 13.125 33.25C16.128 33.25 18.8353 32.704 21 31.7607V34.125C21 34.7795 18.207 36.75 13.125 36.75ZM28.875 28C27.9772 28 27.0935 27.9352 26.25 27.8092V24.3512C27.1092 24.4492 27.9895 24.5 28.875 24.5C31.878 24.5 34.5853 23.954 36.75 23.0107V25.375C36.75 26.0295 33.957 28 28.875 28ZM28.875 19.25C27.9772 19.25 27.0935 19.1852 26.25 19.0592V16.625C26.25 16.275 26.215 15.9303 26.1485 15.5943C27.0235 15.6975 27.9352 15.75 28.875 15.75C31.878 15.75 34.5853 15.204 36.75 14.2607V16.625C36.75 17.2795 33.957 19.25 28.875 19.25Z" fill="url(#paint0_linear_1151_352)"/>
<defs>
<linearGradient id="paint0_linear_1151_352" x1="21" y1="0" x2="21" y2="42" gradientUnits="userSpaceOnUse">
<stop stop-color="#E1C220"/>
<stop offset="1" stop-color="#BC8700"/>
</linearGradient>
</defs>
</svg>
