<svg width="32" height="32" viewBox="0 0 32 32" fill="none" xmlns="http://www.w3.org/2000/svg">
<g id="comment-medical-solid 1" clip-path="url(#clip0_194_2349)">
<path id="Vector" d="M16.0003 28C24.8378 28 32.0003 22.1812 32.0003 15C32.0003 7.81875 24.8378 2 16.0003 2C7.16282 2 0.000317423 7.81875 0.000317423 15C0.000317423 17.8188 1.10657 20.425 2.98157 22.5562C2.86282 24.0875 2.26907 25.45 1.64407 26.4875C1.30032 27.0625 0.950317 27.525 0.694067 27.8375C0.562817 27.9937 0.462817 28.1125 0.387817 28.1938C0.350317 28.2313 0.325317 28.2625 0.306567 28.2812L0.287817 28.3C0.000317425 28.5875 -0.0809326 29.0125 0.0753174 29.3875C0.231567 29.7625 0.594067 30.0063 1.00032 30.0063C2.79407 30.0063 4.60032 29.45 6.10032 28.8C7.53157 28.175 8.75032 27.4313 9.49407 26.8875C11.4816 27.6063 13.6816 28.0063 16.0003 28.0063V28ZM14.0003 10C14.0003 9.45 14.4503 9 15.0003 9H17.0003C17.5503 9 18.0003 9.45 18.0003 10V13H21.0003C21.5503 13 22.0003 13.45 22.0003 14V16C22.0003 16.55 21.5503 17 21.0003 17H18.0003V20C18.0003 20.55 17.5503 21 17.0003 21H15.0003C14.4503 21 14.0003 20.55 14.0003 20V17H11.0003C10.4503 17 10.0003 16.55 10.0003 16V14C10.0003 13.45 10.4503 13 11.0003 13H14.0003V10Z" fill="url(#paint0_linear_194_2349)"/>
</g>
<defs>
<linearGradient id="paint0_linear_194_2349" x1="15.9987" y1="2" x2="15.9987" y2="30.0063" gradientUnits="userSpaceOnUse">
<stop stop-color="#E585ED"/>
<stop offset="0.489583" stop-color="white"/>
<stop offset="1" stop-color="#F0F0E1" stop-opacity="0.5"/>
</linearGradient>
<clipPath id="clip0_194_2349">
<rect width="32" height="32" fill="white"/>
</clipPath>
</defs>
</svg>
