<svg width="60" height="60" viewBox="0 0 60 60" fill="none" xmlns="http://www.w3.org/2000/svg">
<path fill-rule="evenodd" clip-rule="evenodd" d="M20.3909 21.4286H7.30157C5.38096 21.4139 3.53268 22.1083 2.16338 23.3587C0.794035 24.6092 0.0158308 26.3135 0 28.0966V53.3331C0.0355386 57.0451 3.30389 60.0281 7.30157 59.9968H20.3909C22.3113 60.0118 24.1598 59.3176 25.5292 58.0671C26.8986 56.8167 27.6768 55.1124 27.6924 53.3288V28.0966C27.6768 26.3135 26.8986 24.6092 25.5292 23.3587C24.1598 22.1083 22.3113 21.4139 20.3909 21.4286Z" fill="url(#paint0_linear_399_2191)"/>
<path fill-rule="evenodd" clip-rule="evenodd" d="M20.3909 0.00258682H7.30157C3.38429 -0.0982905 0.118108 2.76373 0 6.40063V10.746C0.118108 14.3829 3.38429 17.2449 7.30157 17.144H20.3909C24.308 17.2449 27.5743 14.3829 27.6924 10.746V6.40063C27.5743 2.76373 24.308 -0.0982905 20.3909 0.00258682Z" fill="url(#paint1_linear_399_2191)"/>
<path fill-rule="evenodd" clip-rule="evenodd" d="M39.6092 38.5714H52.6939C54.6153 38.5873 56.4647 37.8935 57.835 36.643C59.2053 35.3921 59.9844 33.6874 60.0001 31.9034V6.67106C59.9844 4.88784 59.2062 3.18346 57.8368 1.93295C56.4674 0.682442 54.619 -0.011787 52.6985 0.00304034H39.6092C37.6887 -0.011787 35.8403 0.682442 34.4709 1.93295C33.1015 3.18346 32.3233 4.88784 32.3076 6.67106V31.9034C32.3233 33.6866 33.1015 35.3909 34.4709 36.6413C35.8403 37.8918 37.6887 38.586 39.6092 38.5714Z" fill="url(#paint2_linear_399_2191)"/>
<path fill-rule="evenodd" clip-rule="evenodd" d="M39.6092 59.9973H52.6939C56.6128 60.1006 59.8819 57.2379 60.0001 53.5992V49.2539C59.8819 45.6169 56.6156 42.7551 52.6985 42.8558H39.6092C35.6921 42.7551 32.4258 45.6169 32.3076 49.2539V53.5949C32.423 57.2336 35.6902 60.098 39.6092 59.9973Z" fill="url(#paint3_linear_399_2191)"/>
<defs>
<linearGradient id="paint0_linear_399_2191" x1="13.8462" y1="21.4284" x2="13.8462" y2="59.9971" gradientUnits="userSpaceOnUse">
<stop stop-color="#020051"/>
<stop offset="1" stop-opacity="0.66"/>
</linearGradient>
<linearGradient id="paint1_linear_399_2191" x1="13.8462" y1="0" x2="13.8462" y2="17.1466" gradientUnits="userSpaceOnUse">
<stop stop-color="#020051"/>
<stop offset="1" stop-opacity="0.66"/>
</linearGradient>
<linearGradient id="paint2_linear_399_2191" x1="46.1538" y1="0.00280762" x2="46.1538" y2="38.5717" gradientUnits="userSpaceOnUse">
<stop stop-color="#020051"/>
<stop offset="1" stop-opacity="0.66"/>
</linearGradient>
<linearGradient id="paint3_linear_399_2191" x1="46.1538" y1="42.8533" x2="46.1538" y2="60" gradientUnits="userSpaceOnUse">
<stop stop-color="#020051"/>
<stop offset="1" stop-opacity="0.66"/>
</linearGradient>
</defs>
</svg>
