<svg width="33" height="33" viewBox="0 0 33 33" fill="none" xmlns="http://www.w3.org/2000/svg">
<path fill-rule="evenodd" clip-rule="evenodd" d="M16.5 33C25.6127 33 33 25.6127 33 16.5C33 7.3873 25.6127 0 16.5 0C7.3873 0 0 7.3873 0 16.5C0 25.6127 7.3873 33 16.5 33ZM18.6759 9.49441L20.474 7.6965H20.4777C21.4064 6.76783 22.911 6.76783 23.8397 7.6965L25.3034 9.16381C26.2322 10.0925 26.2322 11.5969 25.3034 12.5256L23.5054 14.3235L18.6759 9.49441ZM9.17672 18.9966L17.8363 10.3339L22.6658 15.163L13.9988 23.8257C13.6124 24.212 13.1332 24.4943 12.6094 24.6503L8.14024 25.9653C7.82818 26.0545 7.49012 25.9691 7.25979 25.7387C7.02946 25.5084 6.94402 25.1704 7.03689 24.8547L8.35199 20.3859C8.50802 19.8621 8.79036 19.3829 9.17672 18.9966Z" fill="url(#paint0_linear_1095_2228)"/>
<defs>
<linearGradient id="paint0_linear_1095_2228" x1="16.5" y1="0" x2="16.5" y2="33" gradientUnits="userSpaceOnUse">
<stop stop-color="#E585ED"/>
<stop offset="0.489583" stop-color="white"/>
<stop offset="1" stop-color="#F0F0E1" stop-opacity="0.5"/>
</linearGradient>
</defs>
</svg>
