<svg width="60" height="60" viewBox="0 0 60 60" fill="none" xmlns="http://www.w3.org/2000/svg">
<path d="M0 47.5C0 54.3925 5.6075 60 12.5 60H47.5C54.3925 60 60 54.3925 60 47.5V25H0V47.5ZM7.5 37.5C7.5 34.7425 9.7425 32.5 12.5 32.5H17.5C20.2575 32.5 22.5 34.7425 22.5 37.5V42.5C22.5 45.2575 20.2575 47.5 17.5 47.5H12.5C9.7425 47.5 7.5 45.2575 7.5 42.5V37.5ZM17.5025 42.5H12.5V37.5H17.5L17.5025 42.5ZM60 17.5V20H0V17.5C0 10.6075 5.6075 5 12.5 5H15V2.5C15 1.12 16.12 0 17.5 0C18.88 0 20 1.12 20 2.5V5H40V2.5C40 1.12 41.12 0 42.5 0C43.88 0 45 1.12 45 2.5V5H47.5C54.3925 5 60 10.6075 60 17.5Z" fill="url(#paint0_linear_1041_2250)"/>
<defs>
<linearGradient id="paint0_linear_1041_2250" x1="30" y1="0" x2="30" y2="60" gradientUnits="userSpaceOnUse">
<stop stop-color="#020051"/>
<stop offset="1" stop-opacity="0.66"/>
</linearGradient>
</defs>
</svg>
