<svg width="28" height="28" viewBox="0 0 28 28" fill="none" xmlns="http://www.w3.org/2000/svg">
<path d="M23.9167 19.8333H22.1667V18.6667C22.1667 18.0227 21.6452 17.5 21 17.5C20.3548 17.5 19.8333 18.0227 19.8333 18.6667V19.8333H15.1667V9.18517C17.178 8.666 18.6667 6.83667 18.6667 4.66667C18.6667 2.093 16.5737 0 14 0C11.4263 0 9.33333 2.093 9.33333 4.66667C9.33333 6.83667 10.822 8.666 12.8333 9.18517V19.8333H4.08333C1.83167 19.8333 0 21.665 0 23.9167C0 26.1683 1.83167 28 4.08333 28H23.9167C26.1683 28 28 26.1683 28 23.9167C28 21.665 26.1683 19.8333 23.9167 19.8333Z" fill="url(#paint0_linear_389_2275)"/>
<defs>
<linearGradient id="paint0_linear_389_2275" x1="14" y1="0" x2="14" y2="28" gradientUnits="userSpaceOnUse">
<stop stop-color="#C291FF" stop-opacity="0.66"/>
<stop offset="0.0001" stop-color="white" stop-opacity="0.66"/>
<stop offset="1" stop-color="#B780D9" stop-opacity="0.86"/>
</linearGradient>
</defs>
</svg>
