<svg width="50" height="50" viewBox="0 0 50 50" fill="none" xmlns="http://www.w3.org/2000/svg">
<path d="M49.082 27.207C50.3027 25.9863 50.3027 24.0039 49.082 22.7832L36.582 10.2832C35.3613 9.0625 33.3789 9.0625 32.1582 10.2832C30.9375 11.5039 30.9375 13.4863 32.1582 14.707L39.3262 21.875H18.75C17.0215 21.875 15.625 23.2715 15.625 25C15.625 26.7285 17.0215 28.125 18.75 28.125H39.3262L32.1582 35.293C30.9375 36.5137 30.9375 38.4961 32.1582 39.7168C33.3789 40.9375 35.3613 40.9375 36.582 39.7168L49.082 27.2168V27.207ZM15.625 9.375C17.3535 9.375 18.75 7.97852 18.75 6.25C18.75 4.52148 17.3535 3.125 15.625 3.125H9.375C4.19922 3.125 0 7.32422 0 12.5V37.5C0 42.6758 4.19922 46.875 9.375 46.875H15.625C17.3535 46.875 18.75 45.4785 18.75 43.75C18.75 42.0215 17.3535 40.625 15.625 40.625H9.375C7.64648 40.625 6.25 39.2285 6.25 37.5V12.5C6.25 10.7715 7.64648 9.375 9.375 9.375H15.625Z" fill="url(#paint0_linear_1047_2253)"/>
<defs>
<linearGradient id="paint0_linear_1047_2253" x1="24.9988" y1="3.125" x2="24.9988" y2="46.875" gradientUnits="userSpaceOnUse">
<stop stop-color="#020051"/>
<stop offset="1" stop-opacity="0.66"/>
</linearGradient>
</defs>
</svg>
