<svg width="101" height="100" viewBox="0 0 101 100" fill="none" xmlns="http://www.w3.org/2000/svg">
<g clip-path="url(#clip0_194_2120)">
<path d="M1.30078 7.46094C0.773437 6.67969 0.5 5.74219 0.5 4.80469C0.5 2.14844 2.64844 0 5.30469 0H26.6523C28.8398 0 30.8906 1.15234 32.0039 3.02734L45.3828 25.3125C35.9688 26.5039 27.5508 30.8984 21.2812 37.4023L1.30078 7.46094ZM99.6797 7.46094L79.7188 37.4023C73.4492 30.8984 65.0312 26.5039 55.6172 25.3125L68.9961 3.02734C70.1289 1.15234 72.1602 0 74.3477 0H95.6953C98.3516 0 100.5 2.14844 100.5 4.80469C100.5 5.74219 100.227 6.67969 99.6992 7.46094H99.6797ZM16.125 65.625C16.125 56.5082 19.7466 47.7648 26.1932 41.3182C32.6398 34.8716 41.3832 31.25 50.5 31.25C59.6168 31.25 68.3602 34.8716 74.8068 41.3182C81.2534 47.7648 84.875 56.5082 84.875 65.625C84.875 74.7418 81.2534 83.4852 74.8068 89.9318C68.3602 96.3784 59.6168 100 50.5 100C41.3832 100 32.6398 96.3784 26.1932 89.9318C19.7466 83.4852 16.125 74.7418 16.125 65.625ZM52.1406 47.0898C51.4766 45.7227 49.543 45.7227 48.8594 47.0898L44.4844 55.957C44.2109 56.5039 43.7031 56.875 43.1172 56.9531L33.3125 58.3789C31.8086 58.5938 31.2227 60.4297 32.2969 61.5039L39.3867 68.418C39.8164 68.8477 40.0117 69.4336 39.9141 70.0391L38.2344 79.7852C37.9805 81.2695 39.543 82.4219 40.8906 81.7188L49.6406 77.1094C50.168 76.8359 50.8125 76.8359 51.3398 77.1094L60.0898 81.7188C61.4375 82.4219 63 81.2891 62.7461 79.7852L61.0664 70.0391C60.9688 69.4531 61.1641 68.8477 61.5937 68.418L68.6836 61.5039C69.7773 60.4492 69.1719 58.6133 67.668 58.3789L57.8828 56.9531C57.2969 56.875 56.7695 56.4844 56.5156 55.957L52.1406 47.0898Z" fill="url(#paint0_linear_194_2120)"/>
</g>
<defs>
<linearGradient id="paint0_linear_194_2120" x1="50.5" y1="0" x2="50.5" y2="100" gradientUnits="userSpaceOnUse">
<stop stop-color="#E585ED"/>
<stop offset="0.489583" stop-color="white"/>
<stop offset="1" stop-color="#F0F0E1" stop-opacity="0.5"/>
</linearGradient>
<clipPath id="clip0_194_2120">
<rect width="100" height="100" fill="white" transform="translate(0.5)"/>
</clipPath>
</defs>
</svg>
