<svg width="28" height="28" viewBox="0 0 28 28" fill="none" xmlns="http://www.w3.org/2000/svg">
<g clip-path="url(#clip0_389_2273)">
<path d="M7.50283 21.1341C6.9685 22.4699 5.69217 23.3333 4.25367 23.3333H1.16667C0.522667 23.3333 0 22.8118 0 22.1666C0 21.5214 0.522667 20.9999 1.16667 20.9999H4.25367C4.73317 20.9999 5.159 20.7118 5.3375 20.2661C5.57667 19.6676 6.25333 19.3748 6.85417 19.6163C7.45267 19.8554 7.742 20.5344 7.50283 21.1341ZM15.1667 5.83328C16.7778 5.83328 18.0833 4.52778 18.0833 2.91661C18.0833 1.30545 16.7778 -5.40363e-05 15.1667 -5.40363e-05C13.5555 -5.40363e-05 12.25 1.30545 12.25 2.91661C12.25 4.52778 13.5555 5.83328 15.1667 5.83328ZM24.5 -5.40363e-05C21.6055 -5.40363e-05 21.077 8.21911 21.0082 12.8333H19.4017C18.9922 12.8333 18.6142 12.6186 18.403 12.2686L16.2517 8.69395C15.6182 7.64278 14.4807 6.99878 13.2533 6.99878H10.4918C10.4545 6.99645 10.4183 6.99645 10.381 6.99878H7.27533C5.95 6.99878 4.73783 7.74778 4.14517 8.93311L2.457 12.3106C2.16883 12.8869 2.40217 13.5881 2.9785 13.8763C3.556 14.1633 4.256 13.9311 4.54417 13.3548L6.23233 9.97728C6.4295 9.58178 6.83317 9.33328 7.27533 9.33328H8.69633L6.65117 14.3184C6.006 15.8923 6.58117 17.6948 8.01967 18.6059L12.8322 21.6439V26.8333C12.8322 27.4784 13.3548 27.9999 13.9988 27.9999C14.6428 27.9999 15.1655 27.4784 15.1655 26.8333V20.9999C15.1655 20.5998 14.9602 20.2264 14.6218 20.0129L12.2395 18.5091L15.1562 11.3994L16.4033 13.4714C17.0368 14.5238 18.1743 15.1666 19.4028 15.1666H22.1865C22.8223 15.1666 23.338 15.6846 23.3333 16.3204C23.3333 16.3286 23.3333 16.3368 23.3333 16.3438C23.3287 16.9726 22.7955 17.4964 22.1667 17.4988C21.5238 17.5443 21.1167 18.1054 21.1622 18.7483C21.819 27.9988 23.7673 27.9988 24.5 27.9988C27.6593 27.9988 28 18.2081 28 13.9988C28 9.78945 27.6593 -0.0012207 24.5 -0.0012207V-5.40363e-05Z" fill="url(#paint0_linear_389_2273)"/>
</g>
<defs>
<linearGradient id="paint0_linear_389_2273" x1="14" y1="-0.0012207" x2="14" y2="27.9999" gradientUnits="userSpaceOnUse">
<stop stop-color="#C291FF" stop-opacity="0.66"/>
<stop offset="0.0001" stop-color="white" stop-opacity="0.66"/>
<stop offset="1" stop-color="#B780D9" stop-opacity="0.86"/>
</linearGradient>
<clipPath id="clip0_389_2273">
<rect width="28" height="28" fill="white"/>
</clipPath>
</defs>
</svg>
