<svg width="60" height="60" viewBox="0 0 60 60" fill="none" xmlns="http://www.w3.org/2000/svg">
<path d="M24.5725 19.405C24.22 19.405 23.8675 19.2925 23.5725 19.0725C23.005 18.6475 22.77 17.9125 22.9825 17.2375L24.55 12.21L20.5875 8.985C20.055 8.5325 19.86 7.795 20.1025 7.14C20.3425 6.485 20.9675 6.0475 21.6675 6.0475H26.67L28.44 1.08C28.68 0.4325 29.305 0 30 0C30.695 0 31.32 0.4325 31.5625 1.085L33.3325 6.0525H38.335C39.035 6.0525 39.66 6.49 39.9 7.1475C40.14 7.805 39.9425 8.5425 39.4075 8.995L35.465 12.2075L37.095 17.175C37.3175 17.8475 37.0925 18.5875 36.53 19.02C35.9675 19.4525 35.195 19.4825 34.6025 19.0975L30.0125 16.1075L25.5 19.1275C25.22 19.315 24.895 19.41 24.5725 19.41V19.405ZM32.5 22.5H27.5C24.0475 22.5 21.25 25.2975 21.25 28.75V53.75C21.25 57.2025 24.0475 60 27.5 60H32.5C35.9525 60 38.75 57.2025 38.75 53.75V28.75C38.75 25.2975 35.9525 22.5 32.5 22.5ZM53.75 40H50C46.5475 40 43.75 42.7975 43.75 46.25V53.75C43.75 57.2025 46.5475 60 50 60H53.75C57.2025 60 60 57.2025 60 53.75V46.25C60 42.7975 57.2025 40 53.75 40ZM10 32.5H6.25C2.7975 32.5 0 35.2975 0 38.75V53.75C0 57.2025 2.7975 60 6.25 60H10C13.4525 60 16.25 57.2025 16.25 53.75V38.75C16.25 35.2975 13.4525 32.5 10 32.5Z" fill="url(#paint0_linear_399_330)"/>
<defs>
<linearGradient id="paint0_linear_399_330" x1="30" y1="0" x2="30" y2="60" gradientUnits="userSpaceOnUse">
<stop stop-color="#020051"/>
<stop offset="1" stop-opacity="0.66"/>
</linearGradient>
</defs>
</svg>
