<svg width="24" height="24" viewBox="0 0 24 24" fill="none" xmlns="http://www.w3.org/2000/svg">
<path d="M23.56 21.0435L18.9149 16.5751C22.3906 12.109 21.4429 5.77919 16.7981 2.43715C12.1533 -0.90489 5.57034 0.00637624 2.09462 4.47251C-1.3811 8.93864 -0.433388 15.2685 4.21139 18.6105C7.94246 21.2951 13.067 21.2951 16.7981 18.6105L21.4452 23.0789C22.0292 23.6404 22.9761 23.6404 23.56 23.0789C24.144 22.5173 24.144 21.6069 23.56 21.0454L23.56 21.0435ZM10.5435 17.7481C6.41542 17.7481 3.06901 14.5303 3.06901 10.5611C3.06901 6.59177 6.41542 3.37407 10.5435 3.37407C14.6715 3.37407 18.018 6.59177 18.018 10.5611C18.0136 14.5286 14.6697 17.7438 10.5435 17.7481Z" fill="url(#paint0_linear_607_1923)"/>
<defs>
<linearGradient id="paint0_linear_607_1923" x1="11.999" y1="0.423096" x2="11.999" y2="23.5" gradientUnits="userSpaceOnUse">
<stop stop-color="#020051"/>
<stop offset="1" stop-opacity="0.66"/>
</linearGradient>
</defs>
</svg>
