<svg width="25" height="24" viewBox="0 0 25 24" fill="none" xmlns="http://www.w3.org/2000/svg">
<path d="M1.78432 5.02886H4.53407C4.74979 5.78822 5.22068 6.45857 5.8741 6.93649C6.52752 7.41441 7.32716 7.67334 8.14965 7.67334C8.97214 7.67334 9.77178 7.41441 10.4252 6.93649C11.0786 6.45857 11.5495 5.78822 11.7652 5.02886H23.8949C24.1614 5.02886 24.4171 4.92756 24.6055 4.74723C24.794 4.56691 24.8999 4.32234 24.8999 4.06732C24.8999 3.81231 24.794 3.56773 24.6055 3.38741C24.4171 3.20709 24.1614 3.10578 23.8949 3.10578H11.7652C11.5495 2.34643 11.0786 1.67608 10.4252 1.19816C9.77178 0.720238 8.97214 0.461304 8.14965 0.461304C7.32716 0.461304 6.52752 0.720238 5.8741 1.19816C5.22068 1.67608 4.74979 2.34643 4.53407 3.10578H1.78432C1.51777 3.10578 1.26214 3.20709 1.07366 3.38741C0.885183 3.56773 0.779297 3.81231 0.779297 4.06732C0.779297 4.32234 0.885183 4.56691 1.07366 4.74723C1.26214 4.92756 1.51777 5.02886 1.78432 5.02886ZM8.14915 2.38463C8.497 2.38463 8.83705 2.48332 9.12628 2.66821C9.41551 2.85311 9.64094 3.11591 9.77406 3.42338C9.90718 3.73086 9.94201 4.06919 9.87415 4.3956C9.80628 4.72201 9.63877 5.02184 9.3928 5.25716C9.14683 5.49249 8.83344 5.65276 8.49227 5.71768C8.1511 5.78261 7.79746 5.74929 7.47608 5.62193C7.15471 5.49457 6.88002 5.27889 6.68676 5.00218C6.4935 4.72546 6.39035 4.40013 6.39035 4.06732C6.39088 3.6212 6.57636 3.1935 6.90608 2.87804C7.2358 2.56259 7.68285 2.38514 8.14915 2.38463Z" fill="url(#paint0_linear_607_1924)"/>
<path d="M23.8949 11.0385H21.1451C20.9298 10.2789 20.4591 9.60836 19.8057 9.13024C19.1523 8.65212 18.3526 8.39307 17.5301 8.39307C16.7075 8.39307 15.9078 8.65212 15.2544 9.13024C14.601 9.60836 14.1303 10.2789 13.915 11.0385H1.78432C1.51777 11.0385 1.26214 11.1398 1.07366 11.3201C0.885183 11.5004 0.779297 11.745 0.779297 12C0.779297 12.255 0.885183 12.4996 1.07366 12.6799C1.26214 12.8603 1.51777 12.9616 1.78432 12.9616H13.915C14.1303 13.7211 14.601 14.3917 15.2544 14.8698C15.9078 15.3479 16.7075 15.607 17.5301 15.607C18.3526 15.607 19.1523 15.3479 19.8057 14.8698C20.4591 14.3917 20.9298 13.7211 21.1451 12.9616H23.8949C24.1614 12.9616 24.4171 12.8603 24.6055 12.6799C24.794 12.4996 24.8999 12.255 24.8999 12C24.8999 11.745 24.794 11.5004 24.6055 11.3201C24.4171 11.1398 24.1614 11.0385 23.8949 11.0385ZM17.5301 13.6827C17.1822 13.6827 16.8421 13.584 16.5529 13.3991C16.2637 13.2142 16.0383 12.9514 15.9051 12.644C15.772 12.3365 15.7372 11.9982 15.8051 11.6717C15.8729 11.3453 16.0404 11.0455 16.2864 10.8102C16.5324 10.5748 16.8458 10.4146 17.1869 10.3497C17.5281 10.2847 17.8817 10.3181 18.2031 10.4454C18.5245 10.5728 18.7992 10.7885 18.9924 11.0652C19.1857 11.3419 19.2888 11.6672 19.2888 12C19.2883 12.4461 19.1028 12.8738 18.7731 13.1893C18.4434 13.5048 17.9963 13.6822 17.5301 13.6827Z" fill="url(#paint1_linear_607_1924)"/>
<path d="M23.8949 18.9711H11.7652C11.5495 18.2118 11.0786 17.5414 10.4252 17.0635C9.77178 16.5856 8.97214 16.3267 8.14965 16.3267C7.32716 16.3267 6.52752 16.5856 5.8741 17.0635C5.22068 17.5414 4.74979 18.2118 4.53407 18.9711H1.78432C1.51777 18.9711 1.26214 19.0724 1.07366 19.2528C0.885183 19.4331 0.779297 19.6777 0.779297 19.9327C0.779297 20.1877 0.885183 20.4323 1.07366 20.6126C1.26214 20.7929 1.51777 20.8942 1.78432 20.8942H4.53407C4.74979 21.6536 5.22068 22.3239 5.8741 22.8018C6.52752 23.2798 7.32716 23.5387 8.14965 23.5387C8.97214 23.5387 9.77178 23.2798 10.4252 22.8018C11.0786 22.3239 11.5495 21.6536 11.7652 20.8942H23.8949C24.1614 20.8942 24.4171 20.7929 24.6055 20.6126C24.794 20.4323 24.8999 20.1877 24.8999 19.9327C24.8999 19.6777 24.794 19.4331 24.6055 19.2528C24.4171 19.0724 24.1614 18.9711 23.8949 18.9711ZM8.14915 21.6154C7.80129 21.6154 7.46125 21.5167 7.17201 21.3318C6.88278 21.1469 6.65735 20.8841 6.52423 20.5766C6.39111 20.2691 6.35628 19.9308 6.42415 19.6044C6.49201 19.278 6.65952 18.9782 6.90549 18.7428C7.15146 18.5075 7.46485 18.3472 7.80602 18.2823C8.1472 18.2174 8.50083 18.2507 8.82221 18.3781C9.14359 18.5054 9.41827 18.7211 9.61153 18.9978C9.80479 19.2745 9.90794 19.5999 9.90794 19.9327C9.90714 20.3787 9.72159 20.8063 9.39192 21.1217C9.06226 21.4371 8.61536 21.6146 8.14915 21.6154Z" fill="url(#paint2_linear_607_1924)"/>
<defs>
<linearGradient id="paint0_linear_607_1924" x1="12.8396" y1="0.461304" x2="12.8396" y2="7.67334" gradientUnits="userSpaceOnUse">
<stop stop-color="#020051"/>
<stop offset="1" stop-opacity="0.66"/>
</linearGradient>
<linearGradient id="paint1_linear_607_1924" x1="12.8396" y1="8.39307" x2="12.8396" y2="15.607" gradientUnits="userSpaceOnUse">
<stop stop-color="#020051"/>
<stop offset="1" stop-opacity="0.66"/>
</linearGradient>
<linearGradient id="paint2_linear_607_1924" x1="12.8396" y1="16.3267" x2="12.8396" y2="23.5387" gradientUnits="userSpaceOnUse">
<stop stop-color="#020051"/>
<stop offset="1" stop-opacity="0.66"/>
</linearGradient>
</defs>
</svg>
