<svg width="18" height="16" viewBox="0 0 18 16" fill="none" xmlns="http://www.w3.org/2000/svg">
<g clip-path="url(#clip0_1106_2225)">
<path d="M8.99662 0C9.28412 0 9.54662 0.1625 9.67162 0.421875L11.8154 4.8375L16.6029 5.54375C16.8841 5.58437 17.1185 5.78125 17.206 6.05312C17.2935 6.325 17.2216 6.61875 17.0216 6.81875L13.5497 10.2625L14.3685 15.125C14.4154 15.4062 14.2997 15.6906 14.0654 15.8594C13.831 16.0281 13.5247 16.0469 13.2747 15.9125L8.99349 13.625L4.7185 15.9094C4.46537 16.0438 4.15912 16.025 3.92787 15.8562C3.69662 15.6875 3.57787 15.4031 3.62475 15.1219L4.4435 10.2594L0.97162 6.81875C0.768495 6.61875 0.699745 6.32187 0.787245 6.05312C0.874745 5.78437 1.10912 5.5875 1.39037 5.54375L6.17787 4.8375L8.32162 0.421875C8.44975 0.1625 8.70912 0 8.99662 0ZM8.99662 2.46875L7.356 5.85C7.24662 6.07187 7.03725 6.22812 6.79037 6.26562L3.09349 6.80937L5.77787 9.46875C5.94975 9.64062 6.031 9.88438 5.99037 10.125L5.356 13.8656L8.6435 12.1094C8.86537 11.9906 9.131 11.9906 9.34975 12.1094L12.6372 13.8656L12.006 10.1281C11.9654 9.8875 12.0435 9.64375 12.2185 9.47188L14.9029 6.8125L11.206 6.26562C10.9622 6.22812 10.7497 6.075 10.6404 5.85L8.99662 2.46875Z" fill="url(#paint0_linear_1106_2225)"/>
</g>
<defs>
<linearGradient id="paint0_linear_1106_2225" x1="8.99635" y1="0" x2="8.99635" y2="16.0012" gradientUnits="userSpaceOnUse">
<stop stop-color="#E585ED"/>
<stop offset="0.489583" stop-color="white"/>
<stop offset="1" stop-color="#F0F0E1" stop-opacity="0.5"/>
</linearGradient>
<clipPath id="clip0_1106_2225">
<rect width="18" height="16" fill="white"/>
</clipPath>
</defs>
</svg>
