<svg width="18" height="16" viewBox="0 0 18 16" fill="none" xmlns="http://www.w3.org/2000/svg">
<g clip-path="url(#clip0_194_2340)">
<path d="M9.97926 0.5625C9.7986 0.21875 9.41683 0 8.99755 0C8.57828 0 8.19991 0.21875 8.01584 0.5625L5.82403 4.69688L0.929098 5.35938C0.52005 5.41563 0.179178 5.67812 0.053055 6.0375C-0.0730679 6.39687 0.0291938 6.79375 0.322344 7.05937L3.87424 10.2812L3.03569 14.8344C2.96752 15.2094 3.13795 15.5906 3.47542 15.8125C3.81288 16.0344 4.25942 16.0625 4.62756 15.8844L9.00096 13.7437L13.3744 15.8844C13.7425 16.0625 14.189 16.0375 14.5265 15.8125C14.864 15.5875 15.0344 15.2094 14.9662 14.8344L14.1243 10.2812L17.6762 7.05937C17.9693 6.79375 18.075 6.39687 17.9455 6.0375C17.8159 5.67812 17.4785 5.41563 17.0694 5.35938L12.1711 4.69688L9.97926 0.5625Z" fill="url(#paint0_linear_194_2340)"/>
</g>
<defs>
<linearGradient id="paint0_linear_194_2340" x1="9" y1="0" x2="9" y2="16.0018" gradientUnits="userSpaceOnUse">
<stop stop-color="#E585ED"/>
<stop offset="0.489583" stop-color="white"/>
<stop offset="1" stop-color="#F0F0E1" stop-opacity="0.5"/>
</linearGradient>
<clipPath id="clip0_194_2340">
<rect width="18" height="16" fill="white"/>
</clipPath>
</defs>
</svg>
