<svg width="34" height="32" viewBox="0 0 34 32" fill="none" xmlns="http://www.w3.org/2000/svg">
<g id="star-half-stroke-regular 1" clip-path="url(#clip0_194_1397)">
<path id="Vector" d="M18.3875 0.843851C18.1298 0.325039 17.5888 0 16.9962 0C16.4036 0 15.8626 0.325039 15.605 0.843851L11.1864 9.67616L1.31877 11.0951C0.739076 11.1763 0.255999 11.5701 0.0756505 12.114C-0.104698 12.6578 0.0434453 13.2453 0.455671 13.6454L7.61165 20.5275L5.9241 30.2474C5.82749 30.8099 6.0658 31.3788 6.54888 31.7163C7.03196 32.0538 7.66318 32.0913 8.17846 31.8226L17.0027 27.247L25.8269 31.8226C26.3486 32.0913 26.9798 32.0538 27.4564 31.7163C27.9331 31.3788 28.1778 30.8099 28.0812 30.2474L26.3808 20.5275L33.5432 13.6391C33.9619 13.2391 34.1036 12.6453 33.9232 12.1077C33.7429 11.5701 33.2598 11.1763 32.6801 11.0888L22.806 9.67616L18.3875 0.843851ZM17.0027 24.0466V4.94434L20.3842 11.7014C20.6096 12.1452 21.0412 12.4577 21.55 12.5328L29.1698 13.6266L23.6369 18.9398C23.2827 19.2836 23.1152 19.7711 23.1989 20.2524L24.5 27.7283L17.7241 24.2217C17.4986 24.1029 17.2474 24.0466 17.0027 24.0466Z" fill="url(#paint0_linear_194_1397)"/>
</g>
<defs>
<linearGradient id="paint0_linear_194_1397" x1="17" y1="0" x2="17" y2="32" gradientUnits="userSpaceOnUse">
<stop stop-color="#E585ED"/>
<stop offset="0.489583" stop-color="white"/>
<stop offset="1" stop-color="#F0F0E1" stop-opacity="0.5"/>
</linearGradient>
<clipPath id="clip0_194_1397">
<rect width="34" height="32" fill="white"/>
</clipPath>
</defs>
</svg>
