<svg width="34" height="32" viewBox="0 0 34 32" fill="none" xmlns="http://www.w3.org/2000/svg">
<g id="star-solid 4" clip-path="url(#clip0_194_1405)">
<path id="Vector" d="M18.8497 1.125C18.5085 0.4375 17.7873 0 16.9954 0C16.2034 0 15.4887 0.4375 15.141 1.125L11.0009 9.39375L1.75496 10.7188C0.982318 10.8313 0.338447 11.3562 0.100215 12.075C-0.138017 12.7937 0.0551438 13.5875 0.608872 14.1187L7.318 20.5625L5.73408 29.6688C5.60531 30.4188 5.92724 31.1812 6.56467 31.625C7.20211 32.0687 8.04558 32.125 8.74096 31.7687L17.0018 27.4875L25.2627 31.7687C25.9581 32.125 26.8015 32.075 27.439 31.625C28.0764 31.175 28.3983 30.4188 28.2695 29.6688L26.6792 20.5625L33.3883 14.1187C33.942 13.5875 34.1416 12.7937 33.897 12.075C33.6523 11.3562 33.0149 10.8313 32.2422 10.7188L22.9898 9.39375L18.8497 1.125Z" fill="url(#paint0_linear_194_1405)"/>
</g>
<defs>
<linearGradient id="paint0_linear_194_1405" x1="17" y1="0" x2="17" y2="32.0036" gradientUnits="userSpaceOnUse">
<stop stop-color="#E585ED"/>
<stop offset="0.489583" stop-color="white"/>
<stop offset="1" stop-color="#F0F0E1" stop-opacity="0.5"/>
</linearGradient>
<clipPath id="clip0_194_1405">
<rect width="34" height="32" fill="white"/>
</clipPath>
</defs>
</svg>
