<svg width="18" height="16" viewBox="0 0 18 16" fill="none" xmlns="http://www.w3.org/2000/svg">
<g id="star-half-stroke-regular 1" clip-path="url(#clip0_194_2338)">
<path id="Vector" d="M9.73455 0.421926C9.59815 0.162519 9.31172 0 8.998 0C8.68428 0 8.39785 0.162519 8.26145 0.421926L5.92222 4.83808L0.698171 5.54754C0.391276 5.58817 0.135529 5.78507 0.0400503 6.05698C-0.0554285 6.32888 0.0230005 6.62267 0.241238 6.82269L4.0297 10.2637L3.13629 15.1237C3.08514 15.405 3.21131 15.6894 3.46705 15.8582C3.7228 16.0269 4.05698 16.0457 4.32977 15.9113L9.00141 13.6235L13.673 15.9113C13.9493 16.0457 14.2834 16.0269 14.5358 15.8582C14.7881 15.6894 14.9177 15.405 14.8665 15.1237L13.9663 10.2637L17.7582 6.81957C17.9798 6.61954 18.0548 6.32263 17.9594 6.05385C17.8639 5.78507 17.6081 5.58817 17.3012 5.54441L12.0738 4.83808L9.73455 0.421926ZM9.00141 12.0233V2.47217L10.7916 5.8507C10.911 6.0726 11.1395 6.22887 11.4088 6.26638L15.4428 6.81332L12.5137 9.46989C12.3261 9.64178 12.2375 9.88556 12.2818 10.1262L12.9706 13.8642L9.38333 12.1108C9.26398 12.0514 9.13099 12.0233 9.00141 12.0233Z" fill="url(#paint0_linear_194_2338)"/>
</g>
<defs>
<linearGradient id="paint0_linear_194_2338" x1="9" y1="0" x2="9" y2="16" gradientUnits="userSpaceOnUse">
<stop stop-color="#E585ED"/>
<stop offset="0.489583" stop-color="white"/>
<stop offset="1" stop-color="#F0F0E1" stop-opacity="0.5"/>
</linearGradient>
<clipPath id="clip0_194_2338">
<rect width="18" height="16" fill="white"/>
</clipPath>
</defs>
</svg>
