<svg width="34" height="32" viewBox="0 0 34 32" fill="none" xmlns="http://www.w3.org/2000/svg">
<g clip-path="url(#clip0_1106_2225)">
<path d="M16.9939 0C17.537 0 18.0328 0.325 18.2689 0.84375L22.3182 9.675L31.3613 11.0875C31.8926 11.1687 32.3353 11.5625 32.5005 12.1062C32.6658 12.65 32.5301 13.2375 32.1523 13.6375L25.5943 20.525L27.1408 30.25C27.2294 30.8125 27.011 31.3812 26.5682 31.7188C26.1255 32.0563 25.5471 32.0938 25.0748 31.825L16.988 27.25L8.91304 31.8188C8.43491 32.0875 7.85644 32.05 7.41964 31.7125C6.98283 31.375 6.75852 30.8062 6.84707 30.2437L8.39359 20.5187L1.83561 13.6375C1.45193 13.2375 1.32207 12.6437 1.48734 12.1062C1.65262 11.5687 2.09533 11.175 2.62658 11.0875L11.6696 9.675L15.7189 0.84375C15.961 0.325 16.4509 0 16.9939 0ZM16.9939 4.9375L13.895 11.7C13.6884 12.1437 13.2929 12.4562 12.8266 12.5312L5.84359 13.6187L10.9141 18.9375C11.2387 19.2812 11.3922 19.7688 11.3155 20.25L10.1172 27.7313L16.3269 24.2188C16.746 23.9813 17.2478 23.9813 17.661 24.2188L23.8707 27.7313L22.6783 20.2563C22.6016 19.775 22.7492 19.2875 23.0797 18.9438L28.1502 13.625L21.1672 12.5312C20.7068 12.4562 20.3054 12.15 20.0988 11.7L16.9939 4.9375Z" fill="url(#paint0_linear_1106_2225)"/>
</g>
<defs>
<linearGradient id="paint0_linear_1106_2225" x1="16.9934" y1="0" x2="16.9934" y2="32.0024" gradientUnits="userSpaceOnUse">
<stop stop-color="#E585ED"/>
<stop offset="0.489583" stop-color="white"/>
<stop offset="1" stop-color="#F0F0E1" stop-opacity="0.5"/>
</linearGradient>
<clipPath id="clip0_1106_2225">
<rect width="34" height="32" fill="white"/>
</clipPath>
</defs>
</svg>
