<svg width="60" height="60" viewBox="0 0 60 60" fill="none" xmlns="http://www.w3.org/2000/svg">
<path d="M41.25 0C30.56 0 22.5 4.8375 22.5 11.25C22.5 11.75 22.55 12.2425 22.645 12.7225C21.395 12.575 20.0925 12.5 18.75 12.5C8.06 12.5 0 17.3375 0 23.75V48.75C0 55.1625 8.06 60 18.75 60C29.44 60 37.5 55.1625 37.5 48.75V47.2875C38.7275 47.4275 39.985 47.5 41.25 47.5C51.94 47.5 60 42.6625 60 36.25V11.25C60 4.8375 51.94 0 41.25 0ZM41.25 7.5C48.51 7.5 52.5 10.315 52.5 11.25C52.5 12.185 48.51 15 41.25 15C33.99 15 30 12.185 30 11.25C30 10.315 33.99 7.5 41.25 7.5ZM18.75 20C26.01 20 30 22.815 30 23.75C30 24.685 26.01 27.5 18.75 27.5C11.49 27.5 7.5 24.685 7.5 23.75C7.5 22.815 11.49 20 18.75 20ZM7.5 32.8725C10.5925 34.22 14.46 35 18.75 35C23.04 35 26.9075 34.22 30 32.8725V36.25C30 37.185 26.01 40 18.75 40C11.49 40 7.5 37.185 7.5 36.25V32.8725ZM18.75 52.5C11.49 52.5 7.5 49.685 7.5 48.75V45.3725C10.5925 46.72 14.46 47.5 18.75 47.5C23.04 47.5 26.9075 46.72 30 45.3725V48.75C30 49.685 26.01 52.5 18.75 52.5ZM41.25 40C39.9675 40 38.705 39.9075 37.5 39.7275V34.7875C38.7275 34.9275 39.985 35 41.25 35C45.54 35 49.4075 34.22 52.5 32.8725V36.25C52.5 37.185 48.51 40 41.25 40ZM41.25 27.5C39.9675 27.5 38.705 27.4075 37.5 27.2275V23.75C37.5 23.25 37.45 22.7575 37.355 22.2775C38.605 22.425 39.9075 22.5 41.25 22.5C45.54 22.5 49.4075 21.72 52.5 20.3725V23.75C52.5 24.685 48.51 27.5 41.25 27.5Z" fill="url(#paint0_linear_399_1625)"/>
<defs>
<linearGradient id="paint0_linear_399_1625" x1="30" y1="0" x2="30" y2="60" gradientUnits="userSpaceOnUse">
<stop stop-color="#C291FF" stop-opacity="0.66"/>
<stop offset="0.0001" stop-color="white" stop-opacity="0.66"/>
<stop offset="1" stop-color="#B780D9" stop-opacity="0.86"/>
</linearGradient>
</defs>
</svg>
